# xmcd
#
# Track frame offsets:
#	150
#	13211
#	26616
#	38489
#	50591
#	65300
#	77862
#	90234
#	102073
#	113261
#	126067
#	140328
#	157165
#	174417
#	189907
#	205453
#	222158
#	232242
#
# Disc length: 3235 seconds
#
# Revision: 1
# Processed by: cddbd v1.5PL3 Copyright (c) Steve Scherf et al.
# Submitted via: EasyCDDAExtractor 7.0.5.4
#
DISCID=ea0ca112
DTITLE=Cher - Bang, Bang the early years
DYEAR=1900
DGENRE=Pop
TTITLE0=Dream Baby (Performed as "Cherilyn")
TTITLE1=All I really want to do
TTITLE2=I go to sleep
TTITLE3=Come and stay with me
TTITLE4=Where do you go
TTITLE5=You don't have to say you love me
TTITLE6=Bang Bang (My baby shot me down)
TTITLE7=Needles and pins
TTITLE8=Elusive butterly
TTITLE9=Alfie
TTITLE10=Sunny
TTITLE11=Behind the door
TTITLE12=Magic in the air
TTITLE13=Mama (When my Dollies have babies)
TTITLE14=Hey Joe
TTITLE15=You better got sit down kids
TTITLE16=Girl from Ipanema
TTITLE17=It's not unusual
EXTD=
EXTT0=
EXTT1=
EXTT2=
EXTT3=
EXTT4=
EXTT5=
EXTT6=
EXTT7=
EXTT8=
EXTT9=
EXTT10=
EXTT11=
EXTT12=
EXTT13=
EXTT14=
EXTT15=
EXTT16=
EXTT17=
PLAYORDER=
